<svg width="334" height="53" xmlns="http://www.w3.org/2000/svg" xmlns:xlink="http://www.w3.org/1999/xlink" xml:space="preserve" overflow="hidden"><defs><clipPath id="clip0"><path d="M78.7517 318C64.076 318 52.1929 329.871 52.1929 344.491 52.1929 359.11 64.0947 370.981 78.7517 370.981 93.4088 370.981 105.311 359.11 105.311 344.491 105.311 329.871 93.4275 318 78.7517 318ZM78.7517 357.97C71.292 357.97 65.238 351.931 65.238 344.491 65.238 337.05 71.292 331.012 78.7517 331.012 86.2114 331.012 92.2654 337.05 92.2654 344.491 92.2654 351.931 86.2114 357.97 78.7517 357.97Z" fill-rule="evenodd" clip-rule="evenodd"/></clipPath><clipPath id="clip1"><path d="M58.2657 361.353C60.5523 364.12 63.4387 366.457 66.8312 368.177L77.5147 346.042 58.2657 361.353ZM52.9614 350.81C53.8423 354.362 55.4542 357.727 57.7034 360.662L76.9712 345.351 52.9614 350.81ZM52.774 349.95 76.7837 344.491 52.7552 339.013C51.9868 342.677 52.0055 346.398 52.7552 349.95M54.8357 332.993C54.011 334.676 53.3925 336.414 52.9614 338.172L76.9712 343.649 57.7221 328.32C56.6163 329.74 55.6416 331.311 54.8357 332.993"/></clipPath><linearGradient x1="17.5919" y1="49.4667" x2="7.57143" y2="9.8522" gradientUnits="userSpaceOnUse" spreadMethod="pad" id="fill2"><stop offset="0" stop-color="#E9671B"/><stop offset="1" stop-color="#F39700"/></linearGradient><clipPath id="clip3"><path d="M78.7517 318C64.076 318 52.1929 329.871 52.1929 344.491 52.1929 359.11 64.0947 370.981 78.7517 370.981 93.4088 370.981 105.311 359.11 105.311 344.491 105.311 329.871 93.4275 318 78.7517 318ZM78.7517 357.97C71.292 357.97 65.238 351.931 65.238 344.491 65.238 337.05 71.292 331.012 78.7517 331.012 86.2114 331.012 92.2654 337.05 92.2654 344.491 92.2654 351.931 86.2114 357.97 78.7517 357.97Z" fill-rule="evenodd" clip-rule="evenodd"/></clipPath><clipPath id="clip4"><path d="M67.6184 368.551C71.0859 370.14 74.7033 370.944 78.3019 371L78.3019 346.416C78.3019 346.416 67.6184 368.551 67.6184 368.551ZM79.1828 371C82.8939 370.944 86.5301 370.103 89.8663 368.57L79.1828 346.435 79.1828 371ZM90.6535 368.177C93.9148 366.551 96.8387 364.251 99.2378 361.372L79.9888 346.042 90.6723 368.177Z"/></clipPath><linearGradient x1="45.9707" y1="46.3072" x2="21.1813" y2="36.4737" gradientUnits="userSpaceOnUse" spreadMethod="pad" id="fill5"><stop offset="0" stop-color="#E9671B"/><stop offset="1" stop-color="#F39700"/></linearGradient><clipPath id="clip6"><path d="M78.7517 318C64.076 318 52.1929 329.871 52.1929 344.491 52.1929 359.11 64.0947 370.981 78.7517 370.981 93.4088 370.981 105.311 359.11 105.311 344.491 105.311 329.871 93.4275 318 78.7517 318ZM78.7517 357.97C71.292 357.97 65.238 351.931 65.238 344.491 65.238 337.05 71.292 331.012 78.7517 331.012 86.2114 331.012 92.2654 337.05 92.2654 344.491 92.2654 351.931 86.2114 357.97 78.7517 357.97Z" fill-rule="evenodd" clip-rule="evenodd"/></clipPath><clipPath id="clip7"><path d="M99.8001 360.68C100.906 359.26 101.881 357.689 102.687 356.007 103.511 354.324 104.13 352.586 104.561 350.828L80.5511 345.351 99.8001 360.68ZM80.7385 344.491 104.748 349.968C105.535 346.304 105.498 342.584 104.748 339.032L80.7385 344.491ZM80.5511 343.631 104.561 338.172C103.68 334.62 102.068 331.255 99.8189 328.32L80.5323 343.649ZM80.0075 342.939 99.2566 327.647C96.9699 324.88 94.0835 322.543 90.691 320.823L80.0075 342.958Z"/></clipPath><linearGradient x1="37.3337" y1="3.60811" x2="44.1947" y2="43.1104" gradientUnits="userSpaceOnUse" spreadMethod="pad" id="fill8"><stop offset="0" stop-color="#E9671B"/><stop offset="1" stop-color="#F39700"/></linearGradient><clipPath id="clip9"><path d="M78.7517 318C64.076 318 52.1929 329.871 52.1929 344.491 52.1929 359.11 64.0947 370.981 78.7517 370.981 93.4088 370.981 105.311 359.11 105.311 344.491 105.311 329.871 93.4275 318 78.7517 318ZM78.7517 357.97C71.292 357.97 65.238 351.931 65.238 344.491 65.238 337.05 71.292 331.012 78.7517 331.012 86.2114 331.012 92.2654 337.05 92.2654 344.491 92.2654 351.931 86.2114 357.97 78.7517 357.97Z" fill-rule="evenodd" clip-rule="evenodd"/></clipPath><clipPath id="clip10"><path d="M58.2657 327.628 77.5334 342.958 66.8499 320.823C63.5887 322.449 60.6648 324.749 58.2844 327.628M67.6371 320.43 78.3206 342.565 78.3206 318C74.6283 318.056 70.9734 318.897 67.6371 320.43M79.2016 342.565 89.8851 320.449C86.4176 318.841 82.8002 318.056 79.2016 318L79.2016 342.565Z"/></clipPath><linearGradient x1="6.5806" y1="8.4127" x2="34.3238" y2="15.7037" gradientUnits="userSpaceOnUse" spreadMethod="pad" id="fill11"><stop offset="0" stop-color="#E9671B"/><stop offset="1" stop-color="#F39700"/></linearGradient><clipPath id="clip12"><path d="M78.7517 318C64.076 318 52.1929 329.871 52.1929 344.491 52.1929 359.11 64.0947 370.981 78.7517 370.981 93.4088 370.981 105.311 359.11 105.311 344.491 105.311 329.871 93.4275 318 78.7517 318ZM78.7517 357.97C71.292 357.97 65.238 351.931 65.238 344.491 65.238 337.05 71.292 331.012 78.7517 331.012 86.2114 331.012 92.2654 337.05 92.2654 344.491 92.2654 351.931 86.2114 357.97 78.7517 357.97Z" fill-rule="evenodd" clip-rule="evenodd"/></clipPath><clipPath id="clip13"><path d="M70.4299 362.756C72.7915 363.821 75.5654 364.475 78.3206 364.532L78.3206 346.416C78.3206 346.416 70.4299 362.737 70.4299 362.737ZM63.3263 357.334C65.0319 359.353 67.281 361.148 69.6426 362.363L77.4772 346.117 63.3263 357.353ZM59.259 349.389C59.9338 351.987 61.1896 354.567 62.7827 356.642L77.1586 345.295 59.259 349.389ZM58.678 344.509C58.678 345.855 58.8279 347.239 59.0716 348.529L76.8212 344.509 59.1091 340.471C58.8467 341.742 58.678 343.163 58.678 344.509"/></clipPath><linearGradient x1="21.2374" y1="46.6437" x2="11.3665" y2="21.4056" gradientUnits="userSpaceOnUse" spreadMethod="pad" id="fill14"><stop offset="0" stop-color="#E9671B"/><stop offset="1" stop-color="#F39700"/></linearGradient><clipPath id="clip15"><path d="M78.7517 318C64.076 318 52.1929 329.871 52.1929 344.491 52.1929 359.11 64.0947 370.981 78.7517 370.981 93.4088 370.981 105.311 359.11 105.311 344.491 105.311 329.871 93.4275 318 78.7517 318ZM78.7517 357.97C71.292 357.97 65.238 351.931 65.238 344.491 65.238 337.05 71.292 331.012 78.7517 331.012 86.2114 331.012 92.2654 337.05 92.2654 344.491 92.2654 351.931 86.2114 357.97 78.7517 357.97Z" fill-rule="evenodd" clip-rule="evenodd"/></clipPath><clipPath id="clip16"><path d="M79.1828 346.229 79.1828 364.55C81.9193 364.475 84.712 363.821 87.0736 362.756L79.1828 346.229ZM87.8608 362.344C90.2224 361.129 92.4716 359.372 94.1772 357.353L79.9888 346.061 87.8608 362.363ZM94.7395 356.661C96.3139 354.567 97.5884 352.006 98.2444 349.389L80.4948 345.276 94.7395 356.661Z"/></clipPath><linearGradient x1="45.709" y1="38.5115" x2="28.7153" y2="35.7446" gradientUnits="userSpaceOnUse" spreadMethod="pad" id="fill17"><stop offset="0" stop-color="#E9671B"/><stop offset="1" stop-color="#F39700"/></linearGradient><clipPath id="clip18"><path d="M78.7517 318C64.076 318 52.1929 329.871 52.1929 344.491 52.1929 359.11 64.0947 370.981 78.7517 370.981 93.4088 370.981 105.311 359.11 105.311 344.491 105.311 329.871 93.4275 318 78.7517 318ZM78.7517 357.97C71.292 357.97 65.238 351.931 65.238 344.491 65.238 337.05 71.292 331.012 78.7517 331.012 86.2114 331.012 92.2654 337.05 92.2654 344.491 92.2654 351.931 86.2114 357.97 78.7517 357.97Z" fill-rule="evenodd" clip-rule="evenodd"/></clipPath><clipPath id="clip19"><path d="M80.5511 344.491 98.4131 348.51C98.6755 347.239 98.8442 345.818 98.8442 344.472 98.8442 343.126 98.6943 341.742 98.4319 340.453L80.5511 344.472ZM80.3261 343.78 98.207 339.611C97.5322 336.994 96.3139 334.414 94.7395 332.339L80.3261 343.78ZM79.9138 343.032 94.196 331.647C92.4903 329.628 90.2412 327.833 87.8796 326.618L79.9138 343.014ZM79.2016 324.468 79.2016 342.565 87.0924 326.244C84.7308 325.179 81.9568 324.543 79.2016 324.468Z"/></clipPath><linearGradient x1="33.0713" y1="6.52451" x2="40.9605" y2="31.5383" gradientUnits="userSpaceOnUse" spreadMethod="pad" id="fill20"><stop offset="0" stop-color="#E9671B"/><stop offset="1" stop-color="#F39700"/></linearGradient><clipPath id="clip21"><path d="M78.7517 318C64.076 318 52.1929 329.871 52.1929 344.491 52.1929 359.11 64.0947 370.981 78.7517 370.981 93.4088 370.981 105.311 359.11 105.311 344.491 105.311 329.871 93.4275 318 78.7517 318ZM78.7517 357.97C71.292 357.97 65.238 351.931 65.238 344.491 65.238 337.05 71.292 331.012 78.7517 331.012 86.2114 331.012 92.2654 337.05 92.2654 344.491 92.2654 351.931 86.2114 357.97 78.7517 357.97Z" fill-rule="evenodd" clip-rule="evenodd"/></clipPath><clipPath id="clip22"><path d="M77.8333 344.304 62.7827 332.339C61.2083 334.433 59.9713 336.994 59.3153 339.611L77.8521 344.304ZM63.345 331.666 77.6834 343.051 69.6614 326.637C67.2998 327.852 65.0881 329.591 63.4012 331.61M78.3206 342.565 78.3206 324.506C75.5842 324.581 72.8102 325.216 70.4486 326.282L78.3206 342.584Z"/></clipPath><linearGradient x1="7.38448" y1="15.442" x2="26.0607" y2="16.5263" gradientUnits="userSpaceOnUse" spreadMethod="pad" id="fill23"><stop offset="0" stop-color="#E9671B"/><stop offset="1" stop-color="#F39700"/></linearGradient></defs><g transform="translate(-50 -318)"><g clip-path="url(#clip0)"><g clip-path="url(#clip1)"><path d="M0 10.3196 25.4624 10.3196 25.4624 50.1771-2.13946e-07 50.1771Z" fill="url(#fill2)" transform="matrix(1.00257 0 0 1 51.9868 318)"/></g></g><g clip-path="url(#clip3)"><g clip-path="url(#clip4)"><path d="M15.5915 28.0423 47.1298 28.0423 47.1298 53 15.5915 53Z" fill="url(#fill5)" transform="matrix(1.00257 0 0 1 51.9868 318)"/></g></g><g clip-path="url(#clip6)"><g clip-path="url(#clip7)"><path d="M27.9302 2.82293 53.3926 2.82293 53.3926 42.6804 27.9302 42.6804Z" fill="url(#fill8)" transform="matrix(1.00257 0 0 1 51.9868 318)"/></g></g><g clip-path="url(#clip9)"><g clip-path="url(#clip10)"><path d="M6.26279 0 37.8011 0 37.8011 24.9577 6.26279 24.9577Z" fill="url(#fill11)" transform="matrix(1.00257 0 0 1 51.9868 318)"/></g></g><g clip-path="url(#clip12)"><g clip-path="url(#clip13)"><path d="M6.67407 46.5129 26.4533 46.5129 26.3411 22.5647 6.67407 22.3778 6.67407 46.5129Z" fill="url(#fill14)" transform="matrix(1.00257 0 0 1 51.9868 318)"/></g></g><g clip-path="url(#clip15)"><g clip-path="url(#clip16)"><path d="M27.1263 46.5316 46.1016 46.5129 46.1016 27.5189 27.0328 27.5189 27.1263 46.5316Z" fill="url(#fill17)" transform="matrix(1.00257 0 0 1 51.9868 318)"/></g></g><g clip-path="url(#clip18)"><g clip-path="url(#clip19)"><path d="M26.9393 30.4166 46.7185 30.5287 46.7185 6.46843 27.145 6.46843 26.9393 30.4166Z" fill="url(#fill20)" transform="matrix(1.00257 0 0 1 51.9868 318)"/></g></g><g clip-path="url(#clip21)"><g clip-path="url(#clip22)"><path d="M7.29101 25.4624 26.6215 26.2102 26.2663 6.50582 7.29101 6.46843 7.29101 25.4624Z" fill="url(#fill23)" transform="matrix(1.00257 0 0 1 51.9868 318)"/></g></g><path d="M117.217 18.8071C117.217 19.7879 116.422 20.5831 115.441 20.5831 114.46 20.5831 113.665 19.7879 113.665 18.8071 113.665 17.8262 114.46 17.031 115.441 17.031 116.422 17.031 117.217 17.8262 117.217 18.8071Z" fill="#E9671B" transform="matrix(1.00257 0 0 1 51.9868 318)"/><path d="M117.217 35.4455C117.217 36.4264 116.422 37.2215 115.441 37.2215 114.46 37.2215 113.665 36.4264 113.665 35.4455 113.665 34.4646 114.46 33.6695 115.441 33.6695 116.422 33.6695 117.217 34.4646 117.217 35.4455Z" fill="#E9671B" transform="matrix(1.00257 0 0 1 51.9868 318)"/><path d="M84.0709 31.6504C84.0709 32.9591 83.8839 34.1929 83.5287 35.3333 83.1548 36.4737 82.6127 37.4832 81.8836 38.3245 81.1545 39.1658 80.2384 39.8388 79.1168 40.3249 77.9951 40.8109 76.7238 41.054 75.2469 41.054 73.77 41.054 72.4988 40.8109 71.3958 40.3249 70.2928 39.8388 69.3767 39.1658 68.6476 38.3058 67.9185 37.4459 67.3577 36.4363 67.0025 35.2959 66.6286 34.1556 66.4603 32.9217 66.4603 31.6131L66.4603 21.3683C66.4603 20.0596 66.6473 18.8257 67.0025 17.6854 67.3764 16.545 67.9185 15.5354 68.6476 14.6755 69.3767 13.8155 70.2928 13.1425 71.3958 12.6564 72.4988 12.1704 73.77 11.9273 75.2469 11.9273 76.7238 11.9273 77.9951 12.1704 79.1168 12.6564 80.2197 13.1425 81.1545 13.8155 81.8836 14.6755 82.6127 15.5354 83.1735 16.545 83.5287 17.6854 83.9026 18.8257 84.0709 20.0596 84.0709 21.3683L84.0709 31.6317ZM79.472 21.3496C79.472 20.6392 79.3785 19.9474 79.2102 19.2931 79.042 18.6388 78.7616 18.078 78.4063 17.5919 78.0511 17.1058 77.6025 16.7319 77.079 16.4515 76.5556 16.1711 75.9386 16.0215 75.2469 16.0215 74.5552 16.0215 73.9944 16.1711 73.4709 16.4515 72.9474 16.7319 72.5175 17.1245 72.1623 17.5919 71.8071 18.078 71.5453 18.6388 71.3584 19.2931 71.1714 19.9474 71.0966 20.6392 71.0966 21.3496L71.0966 31.6878C71.0966 32.3982 71.1901 33.0713 71.3584 33.7069 71.5266 34.3425 71.8071 34.9034 72.1623 35.3894 72.5175 35.8755 72.9474 36.2681 73.4709 36.5298 73.9944 36.7915 74.5926 36.9411 75.2469 36.9411 75.9012 36.9411 76.5369 36.8102 77.079 36.5298 77.6212 36.2494 78.0511 35.8755 78.4063 35.3894 78.7616 34.9034 79.0233 34.3425 79.2102 33.7069 79.3785 33.0713 79.472 32.3982 79.472 31.6878L79.472 21.3496Z" fill="#2C1D15" transform="matrix(1.00257 0 0 1 51.9868 318)"/><path d="M105.72 39.1658C105.72 40.0818 105.308 40.5305 104.486 40.5305L100.448 40.5305 92.8201 20.957 92.8201 40.5305 88.3894 40.5305 88.3894 13.7968C88.3894 12.9182 88.8007 12.4695 89.6233 12.4695L93.7549 12.4695 101.289 32.1178 101.289 12.4695 105.72 12.4695 105.72 39.1658Z" fill="#2C1D15" transform="matrix(1.00257 0 0 1 51.9868 318)"/><path d="M129.2 40.381 129.2 16.5637 122.508 16.5637 122.508 12.4695 140.492 12.4695 140.492 16.5637 133.762 16.5637 133.762 40.3996 129.182 40.3996Z" fill="#2C1D15" transform="matrix(1.00257 0 0 1 51.9868 318)"/><path d="M159.262 40.381 154.719 40.381 153.055 33.7256 145.764 33.7256 144.1 40.381 139.595 40.381 146.979 12.4508 151.821 12.4508 159.243 40.381ZM146.811 29.594 152.083 29.594 149.466 18.9379 146.811 29.594Z" fill="#2C1D15" transform="matrix(1.00257 0 0 1 51.9868 318)"/><path d="M174.498 19.9661C174.348 18.7884 173.937 17.8162 173.302 17.0871 172.666 16.358 171.806 15.9841 170.74 15.9841 169.45 15.9841 168.478 16.4515 167.787 17.3862 167.095 18.321 166.758 19.5175 166.758 20.9757L166.758 31.6691C166.758 32.3982 166.833 33.0899 166.983 33.7256 167.132 34.3612 167.375 34.9034 167.712 35.352 168.048 35.8007 168.46 36.1559 168.964 36.4176 169.469 36.6794 170.067 36.8102 170.759 36.8102 171.825 36.8102 172.666 36.4737 173.32 35.8194 173.975 35.1464 174.386 34.2677 174.554 33.146L179.134 33.146C179.041 34.3986 178.779 35.5203 178.331 36.4924 177.882 37.4646 177.284 38.2871 176.554 38.9414 175.825 39.5958 174.965 40.1005 173.993 40.437 173.002 40.7735 171.956 40.9605 170.834 40.9605 169.357 40.9605 168.067 40.7362 166.983 40.3062 165.88 39.8762 164.982 39.2406 164.291 38.4367 163.58 37.6328 163.057 36.642 162.702 35.5016 162.346 34.3425 162.178 33.0526 162.178 31.6317L162.178 21.0504C162.178 19.667 162.365 18.4145 162.758 17.2928 163.15 16.1711 163.711 15.2176 164.44 14.4325 165.188 13.6473 166.085 13.049 167.151 12.619 168.217 12.1891 169.45 11.9834 170.853 11.9834 171.974 11.9834 173.021 12.1517 173.975 12.4882 174.928 12.8247 175.769 13.3295 176.498 14.0025 177.228 14.6755 177.807 15.5168 178.256 16.5076 178.704 17.4984 178.966 18.6762 179.078 20.0409L174.498 20.0409Z" fill="#2C1D15" transform="matrix(1.00257 0 0 1 51.9868 318)"/><path d="M188.314 40.381 188.314 16.5637 181.621 16.5637 181.621 12.4695 199.605 12.4695 199.605 16.5637 192.875 16.5637 192.875 40.3996 188.295 40.3996Z" fill="#2C1D15" transform="matrix(1.00257 0 0 1 51.9868 318)"/><path d="M227.984 41.0727 226.563 41.0727 226.563 26.6028 211.645 26.6028 211.645 41.0727 210.224 41.0727 210.224 11.9273 211.645 11.9273 211.645 25.1633 226.563 25.1633 226.563 11.9273 227.984 11.9273 227.984 41.0727Z" fill="#2C1D15" transform="matrix(1.00257 0 0 1 51.9868 318)"/><path d="M249.165 11.9273 249.165 13.3481 234.509 13.3481C234.266 13.3481 234.06 13.5538 234.06 13.7968L234.06 25.182 244.585 25.182 244.585 26.6028 234.06 26.6028 234.06 39.2219C234.06 39.4649 234.266 39.6705 234.509 39.6705L249.165 39.6705C249.165 39.6705 249.165 41.0914 249.165 41.0914L233.63 41.0914C233.088 41.0914 232.639 40.6427 232.639 40.1005L232.639 13.2921C232.639 12.5256 233.256 11.9086 234.023 11.9086L249.165 11.9086Z" fill="#2C1D15" transform="matrix(1.00257 0 0 1 51.9868 318)"/><path d="M276.834 11.9273C276.834 11.9273 276.909 11.9647 276.909 12.0021L276.909 39.1845C276.909 39.4088 277.096 39.5958 277.32 39.5958L291.472 39.5958C291.472 39.5958 291.547 39.6332 291.547 39.6705L291.547 40.9792C291.547 40.9792 291.509 41.054 291.472 41.054L276.441 41.054C275.88 41.054 275.432 40.6053 275.432 40.0444L275.432 12.0021C275.432 12.0021 275.469 11.9273 275.507 11.9273L276.815 11.9273Z" fill="#2C1D15" transform="matrix(1.00257 0 0 1 51.9868 318)"/><path d="M297.66 41.0727 297.66 13.3295 288.967 13.3295 288.967 11.9273 307.774 11.9273 307.774 13.3295 299.081 13.3295 299.081 41.0727 297.66 41.0727Z" fill="#2C1D15" transform="matrix(1.00257 0 0 1 51.9868 318)"/><path d="M271.786 41.0727 270.365 41.0727 267.524 31.8374 256.232 31.8748 253.447 41.0914 252.026 41.0914 260.981 11.946 262.813 11.946 271.768 41.0914ZM256.699 30.4353 267.131 30.4353 261.915 13.2921 256.699 30.4353Z" fill="#2C1D15" transform="matrix(1.00257 0 0 1 51.9868 318)"/><path d="M329.18 41.0727 327.759 41.0727 327.759 26.6028 312.84 26.6028 312.84 41.0727 311.419 41.0727 311.419 11.9273 312.84 11.9273 312.84 25.1633 327.759 25.1633 327.759 11.9273 329.18 11.9273 329.18 41.0727Z" fill="#2C1D15" transform="matrix(1.00257 0 0 1 51.9868 318)"/></g></svg>